<?xml version="1.0" encoding="UTF-8" standalone="no"?>
<!-- Created with Inkscape (http://www.inkscape.org/) -->

<svg
   width="350"
   height="512"
   viewBox="0 0 92.604164 135.46667"
   version="1.1"
   id="svg1"
   inkscape:version="1.3.2 (091e20e, 2023-11-25, custom)"
   sodipodi:docname="circle.svg"
   xmlns:inkscape="http://www.inkscape.org/namespaces/inkscape"
   xmlns:sodipodi="http://sodipodi.sourceforge.net/DTD/sodipodi-0.dtd"
   xmlns:xlink="http://www.w3.org/1999/xlink"
   xmlns="http://www.w3.org/2000/svg"
   xmlns:svg="http://www.w3.org/2000/svg">
  <sodipodi:namedview
     id="namedview1"
     pagecolor="#ffffff"
     bordercolor="#000000"
     borderopacity="0.25"
     inkscape:showpageshadow="2"
     inkscape:pageopacity="0.0"
     inkscape:pagecheckerboard="0"
     inkscape:deskcolor="#d1d1d1"
     inkscape:document-units="mm"
     inkscape:zoom="1.3843855"
     inkscape:cx="222.84255"
     inkscape:cy="191.42067"
     inkscape:window-width="1722"
     inkscape:window-height="1020"
     inkscape:window-x="3060"
     inkscape:window-y="199"
     inkscape:window-maximized="0"
     inkscape:current-layer="layer1" />
  <defs
     id="defs1">
    <linearGradient
       id="linearGradient1"
       inkscape:collect="always">
      <stop
         style="stop-color:#27b17a;stop-opacity:1;"
         offset="0"
         id="stop1" />
      <stop
         style="stop-color:#7d4cde;stop-opacity:1;"
         offset="1"
         id="stop2" />
    </linearGradient>
    <linearGradient
       inkscape:collect="always"
       xlink:href="#linearGradient1"
       id="linearGradient2"
       x1="59.870213"
       y1="16.796068"
       x2="123.46332"
       y2="217.11197"
       gradientUnits="userSpaceOnUse"
       gradientTransform="translate(-21.431246)" />
  </defs>
  <g
     inkscape:label="Camada 1"
     inkscape:groupmode="layer"
     id="layer1">
    <path
       id="path56"
       style="fill:url(#linearGradient2);fill-opacity:1;stroke-width:0.792554;opacity:0.35228849"
       d="m 38.438965,16.796069 c -1.826292,0.01012 -3.630473,0.158301 -5.367377,0.435581 -2.101616,6.234253 -2.252346,14.091253 -1.307511,20.010307 l 6.808378,6.948532 C 36.458418,39.001465 35.731839,28.038584 38.366198,22.526512 42.464499,20.708343 48.200714,20.032848 54.257706,20.668633 49.596213,17.977318 43.917866,16.76571 38.438965,16.796069 Z m 0.13349,27.39442 17.542361,17.542361 c 1.59553,1.596065 1.151218,1.149542 3.278384,3.27531 -0.280769,1.274246 -0.570167,2.169752 -0.928042,2.927355 -0.325027,0.688029 -0.717848,1.269209 -1.208094,1.890421 0.262261,1.309489 0.320476,2.651633 0.172437,3.978897 -0.25338,2.462036 -1.206927,4.799972 -2.747742,6.73689 l 7.325436,7.325442 2.04185,-2.04185 2.121786,2.121792 c 0.427713,-1.319907 0.67164,-2.412646 -0.01384,-4.153904 l 4.16773,4.167995 c 1.502794,-1.502791 1.711874,-6.453978 -0.973647,-9.1395 l -6.78429,-6.784296 c 0.404904,-0.851388 0.733631,-1.771239 1.050005,-2.808215 1.677817,1.676414 6.196006,6.192675 6.196006,6.192675 0,0 7.832857,1.050421 12.597239,-3.713965 -3.15123,-0.09408 -6.407715,-0.631901 -9.989908,-2.091297 1.729914,-0.564932 3.486906,-1.47914 4.953319,-2.945548 -3.293031,-0.09832 -6.697038,-0.669426 -10.471864,-2.283212 l -5.036847,-5.036845 c -0.401306,-3.009787 -0.307996,-6.415046 0.931884,-9.148728 1.84247,-1.703624 4.425865,-3.493665 7.783822,-4.844679 -4.41613,-1.059723 -8.945432,-0.965582 -12.345118,0.283383 -1.622443,3.052907 -1.811838,5.148058 -2.150227,7.930386 -0.401305,-3.009787 -0.308005,-6.415305 0.931885,-9.148986 1.842474,-1.70362 4.425862,-3.49315 7.783821,-4.844165 -4.41613,-1.059732 -8.945431,-0.966101 -12.345118,0.282868 -1.622443,3.052903 -1.811837,5.148327 -2.150232,7.930639 l -5.457564,-5.457566 c -0.801578,-3.480338 -1.242851,-8.65949 0.326688,-12.859103 4.098301,-1.818165 9.834779,-2.493669 15.891766,-1.85788 -6.215314,-3.588411 -14.238458,-4.546099 -21.186117,-3.436982 -2.101602,6.234248 -2.25261,14.091248 -1.307769,20.010307 z m 23.43474,43.676676 -3.237899,0.614424 c -1.756965,-2.10295 -3.490765,-5.245235 -4.233841,-7.760249 -0.241227,0.290801 -0.495025,0.570772 -0.760731,0.839389 -5.056124,5.059624 -13.866313,5.085243 -18.3159,0 v 27.709831 l 9.400338,9.40059 c -5e-6,-11.20953 -1.63e-4,-21.171164 -3.462349,-29.911558 l 14.400284,14.400298 c 2.312828,0.97328 5.616489,1.1946 8.899166,-1.1233 -1.948928,-4.182643 -3.174221,-8.736918 -2.689068,-14.169425 z M 24.322568,46.050932 c -0.0066,3.566541 5.267815,12.129726 12.194461,16.32581 3.706567,-2.993732 9.640154,-4.017478 13.842489,-1.313149 L 42.637189,53.341264 C 37.926184,48.630259 30.946643,46.050932 24.322568,46.050932 Z m 4.795999,17.134705 c -3.34518,0.01462 -7.002412,1.141024 -9.837713,3.457996 l 4.117772,4.117773 c -6.995065,2.652376 -10.765395,7.664976 -13.204493,13.244466 l 21.496919,21.496928 0.03332,-32.689038 c 0,-2.810302 0.780708,-6.101065 2.83358,-8.471017 -1.537478,-0.774739 -3.432262,-1.165873 -5.439374,-1.157108 z m 15.492058,1.274861 c -4.40944,5.5e-5 -7.983989,3.574603 -7.984043,7.984044 5.4e-5,4.409441 3.574603,7.98399 7.984043,7.984045 4.409441,-5.5e-5 7.98399,-3.574604 7.984045,-7.984045 -5.5e-5,-4.409441 -3.574604,-7.983989 -7.984045,-7.984044 z"
       sodipodi:nodetypes="scccccscccsccccccccscccccccccccccccccccccccccccccccccccscsccccccsccccc" />
  </g>
</svg>
