<?xml version="1.0" encoding="UTF-8" standalone="no"?>
<!-- Created with Inkscape (http://www.inkscape.org/) -->

<svg
   width="512"
   height="512"
   viewBox="0 0 135.46666 135.46667"
   version="1.1"
   id="svg1"
   inkscape:version="1.3.2 (091e20e, 2023-11-25, custom)"
   sodipodi:docname="favicon.svg"
   xmlns:inkscape="http://www.inkscape.org/namespaces/inkscape"
   xmlns:sodipodi="http://sodipodi.sourceforge.net/DTD/sodipodi-0.dtd"
   xmlns:xlink="http://www.w3.org/1999/xlink"
   xmlns="http://www.w3.org/2000/svg"
   xmlns:svg="http://www.w3.org/2000/svg">
  <sodipodi:namedview
     id="namedview1"
     pagecolor="#ffffff"
     bordercolor="#000000"
     borderopacity="0.25"
     inkscape:showpageshadow="2"
     inkscape:pageopacity="0.0"
     inkscape:pagecheckerboard="0"
     inkscape:deskcolor="#d1d1d1"
     inkscape:document-units="mm"
     inkscape:zoom="0.69219275"
     inkscape:cx="254.98678"
     inkscape:cy="332.27739"
     inkscape:window-width="1722"
     inkscape:window-height="1020"
     inkscape:window-x="3141"
     inkscape:window-y="199"
     inkscape:window-maximized="0"
     inkscape:current-layer="layer1" />
  <defs
     id="defs1">
    <linearGradient
       id="linearGradient1"
       inkscape:collect="always">
      <stop
         style="stop-color:#27b17a;stop-opacity:1;"
         offset="0"
         id="stop1" />
      <stop
         style="stop-color:#7d4cde;stop-opacity:1;"
         offset="1"
         id="stop2" />
    </linearGradient>
    <linearGradient
       inkscape:collect="always"
       xlink:href="#linearGradient1"
       id="linearGradient2"
       x1="59.870213"
       y1="16.796068"
       x2="123.46332"
       y2="217.11197"
       gradientUnits="userSpaceOnUse"
       gradientTransform="matrix(1.1376182,0,0,1.1376182,-9.3213406,-9.3213408)" />
  </defs>
  <g
     inkscape:label="Camada 1"
     inkscape:groupmode="layer"
     id="layer1">
    <path
       id="path56"
       style="fill:url(#linearGradient2);fill-opacity:1;stroke-width:0.901624"
       d="m 58.788103,9.7861734 c -2.077623,0.011513 -4.130093,0.1800861 -6.106026,0.4955246 -2.390837,7.0922 -2.56231,16.030466 -1.487449,22.76409 l 7.745335,7.904777 C 56.534996,35.047437 55.708427,22.575863 58.705322,16.30523 63.367623,14.236848 69.893246,13.468392 76.783791,14.191673 71.480791,11.129984 65.021,9.7516364 58.788103,9.7861734 Z m 0.15186,31.1643916 19.95651,19.956509 c 1.815104,1.815713 1.309646,1.30774 3.729549,3.726053 -0.319408,1.449605 -0.648632,2.468349 -1.055757,3.330212 -0.369757,0.782714 -0.816637,1.443875 -1.37435,2.150578 0.298353,1.489698 0.364579,3.016546 0.196167,4.526465 -0.288249,2.800857 -1.373022,5.460536 -3.125881,7.664009 l 8.33355,8.333556 2.322845,-2.322845 2.413783,2.413789 c 0.486574,-1.50155 0.76407,-2.74467 -0.01574,-4.725557 l 4.741286,4.741587 c 1.709606,-1.709602 1.947459,-7.342163 -1.107639,-10.397262 l -7.717932,-7.717938 c 0.460626,-0.968555 0.834592,-2.014994 1.194505,-3.194677 1.908715,1.907119 7.048689,7.0449 7.048689,7.0449 0,0 8.910792,1.194978 14.330852,-4.225074 -3.5849,-0.107027 -7.28953,-0.718862 -11.364704,-2.379098 1.967981,-0.642677 3.966764,-1.682697 5.634994,-3.350909 -3.74622,-0.111853 -7.618681,-0.761551 -11.912992,-2.597424 l -5.730009,-5.730006 c -0.456533,-3.423989 -0.350382,-7.297874 1.060129,-10.40776 2.096027,-1.938074 5.034944,-3.974457 8.855017,-5.511395 -5.02387,-1.20556 -10.176486,-1.098464 -14.044031,0.322382 -1.845721,3.473042 -2.06118,5.856524 -2.446137,9.021751 -0.456532,-3.423988 -0.350392,-7.298168 1.060129,-10.408053 2.096032,-1.938069 5.034941,-3.973871 8.855017,-5.51081 -5.02387,-1.205571 -10.176486,-1.099054 -14.044032,0.321795 -1.84572,3.473039 -2.061178,5.856831 -2.446143,9.02204 l -6.208624,-6.208627 c -0.91189,-3.959296 -1.41389,-9.851193 0.371646,-14.62875 4.662302,-2.068377 11.188224,-2.836843 18.078763,-2.113558 -7.070655,-4.082241 -16.197929,-5.171725 -24.101713,-3.909973 -2.390821,7.092194 -2.56261,16.03046 -1.487742,22.76409 z m 26.659788,49.687382 -3.683493,0.69898 c -1.998756,-2.392354 -3.971158,-5.967075 -4.816495,-8.8282 -0.274424,0.33082 -0.563149,0.64932 -0.865421,0.954904 -5.751939,5.75592 -15.774571,5.785065 -20.836502,0 v 31.523209 l 10.693996,10.69428 c -6e-6,-12.75216 -1.86e-4,-24.0847 -3.938832,-34.027931 L 78.53503,108.03523 c 2.631115,1.10722 6.38942,1.359 10.123853,-1.27789 -2.217136,-4.75825 -3.611051,-9.939274 -3.059132,-16.119393 z M 42.729032,43.067039 c -0.0075,4.057362 5.992762,13.798997 13.872641,18.572539 4.216658,-3.405724 10.966815,-4.570357 15.747468,-1.493863 L 63.564079,51.360653 C 58.204754,46.001328 50.264701,43.067039 42.729032,43.067039 Z m 5.456016,19.492752 c -3.805538,0.01663 -7.966072,1.29805 -11.191562,3.93388 l 4.684453,4.684453 c -7.957714,3.017392 -12.24691,8.719817 -15.021672,15.067146 l 24.455287,24.4553 0.03791,-37.187648 c 0,-3.197051 0.888148,-6.940683 3.223532,-9.636783 -1.749063,-0.881358 -3.904603,-1.326319 -6.187931,-1.316348 z m 17.624047,1.450305 c -5.016259,6.3e-5 -9.082731,4.066534 -9.082792,9.082794 6.1e-5,5.016261 4.066533,9.082733 9.082792,9.082796 5.016261,-6.3e-5 9.082733,-4.066535 9.082796,-9.082796 -6.3e-5,-5.01626 -4.066535,-9.082731 -9.082796,-9.082794 z"
       sodipodi:nodetypes="scccccscccsccccccccscccccccccccccccccccccccccccccccccccscsccccccsccccc" />
  </g>
</svg>
