<?xml version="1.0" encoding="UTF-8" standalone="no"?>
<!-- Created with Inkscape (http://www.inkscape.org/) -->

<svg
   width="512"
   height="512"
   viewBox="0 0 135.46666 135.46667"
   version="1.1"
   id="svg1"
   inkscape:version="1.3.2 (091e20e, 2023-11-25, custom)"
   sodipodi:docname="favicon.svg"
   xmlns:inkscape="http://www.inkscape.org/namespaces/inkscape"
   xmlns:sodipodi="http://sodipodi.sourceforge.net/DTD/sodipodi-0.dtd"
   xmlns:xlink="http://www.w3.org/1999/xlink"
   xmlns="http://www.w3.org/2000/svg"
   xmlns:svg="http://www.w3.org/2000/svg">
  <sodipodi:namedview
     id="namedview1"
     pagecolor="#ffffff"
     bordercolor="#000000"
     borderopacity="0.25"
     inkscape:showpageshadow="2"
     inkscape:pageopacity="0.0"
     inkscape:pagecheckerboard="0"
     inkscape:deskcolor="#d1d1d1"
     inkscape:document-units="mm"
     inkscape:zoom="0.69219275"
     inkscape:cx="143.74609"
     inkscape:cy="278.82407"
     inkscape:window-width="1722"
     inkscape:window-height="1020"
     inkscape:window-x="3060"
     inkscape:window-y="199"
     inkscape:window-maximized="0"
     inkscape:current-layer="layer1" />
  <defs
     id="defs1">
    <linearGradient
       id="linearGradient1"
       inkscape:collect="always">
      <stop
         style="stop-color:#27b17a;stop-opacity:1;"
         offset="0"
         id="stop1" />
      <stop
         style="stop-color:#7d4cde;stop-opacity:1;"
         offset="1"
         id="stop2" />
    </linearGradient>
    <linearGradient
       inkscape:collect="always"
       xlink:href="#linearGradient1"
       id="linearGradient2"
       x1="59.870213"
       y1="16.796068"
       x2="123.46332"
       y2="217.11197"
       gradientUnits="userSpaceOnUse"
       gradientTransform="matrix(1.3297258,0,0,1.3297258,-22.333427,-22.333428)" />
  </defs>
  <g
     inkscape:label="Camada 1"
     inkscape:groupmode="layer"
     id="layer1">
    <path
       id="path56"
       style="fill:url(#linearGradient2);fill-opacity:1;stroke-width:1.05388"
       d="M 57.277538,7.3878155e-4 C 54.849071,0.01419475 52.450004,0.2112346 50.140398,0.57994128 47.345825,8.8697892 47.145395,19.317443 48.401766,27.188162 l 9.053277,9.239644 C 54.643954,29.527827 53.677803,14.9502 57.180778,7.620657 62.630394,5.2029899 70.257987,4.3047672 78.312127,5.1501863 72.113618,1.5714753 64.562973,-0.03963044 57.277538,7.3878155e-4 Z M 57.455043,36.427806 80.781574,59.754335 c 2.121617,2.122329 1.530803,1.528576 4.35935,4.355266 -0.373345,1.694397 -0.758164,2.885174 -1.23404,3.892578 -0.432197,0.91489 -0.954541,1.687701 -1.606434,2.513743 0.348735,1.74126 0.426145,3.525944 0.229293,5.290841 -0.336925,3.273833 -1.604882,6.382647 -3.653743,8.958217 l 9.740823,9.740828 2.715099,-2.7151 2.821394,2.821403 c 0.568741,-1.755115 0.893098,-3.208159 -0.01839,-5.523554 l 5.541939,5.54229 c 1.998305,-1.998299 2.276315,-8.582021 -1.294684,-12.15303 l -9.021246,-9.021252 c 0.538412,-1.132113 0.975528,-2.355262 1.396219,-3.734156 2.231037,2.22917 8.238989,8.23456 8.238989,8.23456 0,0 10.415537,1.396771 16.750867,-4.938555 -4.19027,-0.125101 -8.52049,-0.840255 -13.28383,-2.780853 2.30031,-0.751204 4.63662,-1.96685 6.58656,-3.916771 -4.37884,-0.130741 -8.90523,-0.890153 -13.924713,-3.036046 l -6.697626,-6.697622 c -0.533626,-4.002191 -0.409551,-8.530253 1.239151,-12.1653 2.44998,-2.265353 5.885186,-4.645616 10.350348,-6.442094 -5.872241,-1.409141 -11.894971,-1.28396 -16.415621,0.376822 -2.157405,4.059528 -2.409248,6.845504 -2.859212,10.545238 -0.533626,-4.002191 -0.409562,-8.530597 1.239151,-12.165643 2.449985,-2.265347 5.885182,-4.644931 10.350348,-6.44141 C 86.45932,28.885581 80.43659,29.010085 75.915939,30.67087 73.758535,34.730395 73.506694,37.516734 73.05672,41.216447 L 65.799657,33.95938 C 64.733774,29.331484 64.147001,22.444633 66.234057,16.860298 71.683675,14.442637 79.311617,13.544403 87.36575,14.389827 79.101086,9.618226 68.432505,8.344762 59.194022,9.8195835 56.399468,18.109425 56.19867,28.557079 57.455048,36.427806 Z m 31.16178,58.078002 -4.305519,0.817016 C 81.975022,92.526477 79.669543,88.3481 78.681456,85.003822 c -0.320766,0.386684 -0.658247,0.758969 -1.011563,1.116157 -6.723259,6.727911 -18.438395,6.761978 -24.355126,0 v 36.846481 l 12.499873,12.50021 c -6e-6,-14.9056 -2.18e-4,-28.15185 -4.603976,-39.774177 l 19.14843,19.148447 c 3.075426,1.2942 7.468391,1.58849 11.833451,-1.49368 -2.591541,-5.56177 -4.220843,-11.61771 -3.575722,-18.841452 z M 38.5066,38.901685 c -0.0088,4.742522 7.004749,16.129209 16.21529,21.708851 4.928717,-3.980842 12.818762,-5.342145 18.406715,-1.746129 L 62.860025,48.595827 C 56.595681,42.331483 47.314805,38.901685 38.5066,38.901685 Z m 6.377364,22.784459 c -4.448172,0.01944 -9.311288,1.517249 -13.081461,4.598187 l 5.475508,5.475508 C 27.976492,75.286773 22.962987,81.952156 19.719656,89.371348 l 28.585008,28.585022 0.04431,-43.46746 c 0,-3.736931 1.038128,-8.112744 3.767885,-11.264128 -2.044425,-1.030192 -4.563966,-1.550293 -7.232876,-1.538638 z m 20.60019,1.695216 c -5.863347,7.3e-5 -10.616516,4.753242 -10.616588,10.616589 7.2e-5,5.863348 4.753241,10.616517 10.616588,10.616592 5.863348,-7.5e-5 10.616517,-4.753244 10.616591,-10.616592 -7.4e-5,-5.863347 -4.753243,-10.616516 -10.616591,-10.616589 z"
       sodipodi:nodetypes="scccccscccsccccccccscccccccccccccccccccccccccccccccccccscsccccccsccccc" />
  </g>
</svg>
